<svg viewBox="0 -37 511.99724 511" xmlns="http://www.w3.org/2000/svg"><path d="m77.566406 27.636719c4.140625 0 7.5-3.355469 7.5-7.5v-5.640625c0-4.144532-3.359375-7.5-7.5-7.5-4.144531 0-7.5 3.355468-7.5 7.5v5.640625c0 4.144531 3.355469 7.5 7.5 7.5zm50.160156 16.070312c1.792969 0 3.59375-.640625 5.03125-1.9375l4.3125-3.902343c3.074219-2.78125 3.308594-7.523438.53125-10.59375-2.777343-3.070313-7.519531-3.3125-10.59375-.53125l-4.316406 3.90625c-3.070312 2.777343-3.308594 7.519531-.527344 10.59375 1.480469 1.632812 3.519532 2.464843 5.5625 2.464843zm-95.289062-13.058593-4.316406-3.90625c-3.070313-2.777344-7.8125-2.539063-10.59375.53125-2.777344 3.070312-2.539063 7.8125.53125 10.59375l4.316406 3.902343c1.4375 1.300781 3.234375 1.9375 5.03125 1.9375 2.042969 0 4.082031-.832031 5.5625-2.46875 2.777344-3.070312 2.542969-7.8125-.53125-10.589843zm100.980469 49.195312c0 4.140625 3.359375 7.5 7.5 7.5h6.714843c4.140626 0 7.5-3.359375 7.5-7.5 0-4.144531-3.359374-7.5-7.5-7.5h-6.714843c-4.140625 0-7.5 3.355469-7.5 7.5zm-119.203125-7.5h-6.714844c-4.140625 0-7.5 3.355469-7.5 7.5 0 4.140625 3.359375 7.5 7.5 7.5h6.714844c4.140625 0 7.496094-3.359375 7.496094-7.5 0-4.144531-3.355469-7.5-7.496094-7.5zm236.75 15.496094-.949219 10.839844c-.359375 4.125 2.691406 7.761718 6.820313 8.125.222656.019531.441406.027343.660156.027343 3.847656 0 7.121094-2.941406 7.464844-6.847656l.945312-10.839844c.359375-4.125-2.691406-7.765625-6.816406-8.125s-7.765625 2.691407-8.125 6.820313zm254.699218 148.296875c-9.882812-12.234375-27.875-14.148438-40.113281-4.269531-7.902343 6.382812-22.394531 13.839843-37 18.195312.484375-2.152344.730469-4.363281.746094-6.597656 9.785156-6.066406 18.03125-13.378906 24.636719-21.917969 2.535156-3.273437 1.9375-7.984375-1.339844-10.519531-3.277344-2.53125-7.988281-1.933594-10.523438 1.34375-22.105468 28.566406-67.945312 41.355468-129.097656 36.003906-40.640625-3.558594-72.777344-13.507812-94.882812-29.160156-.410156-.367188-.867188-.699219-1.371094-.980469-8.476562-6.210937-15.421875-13.285156-20.722656-21.191406-12.957032-19.320313-15.4375-43.554688-7.175782-70.082031 9.328126-29.949219 24.132813-53.441407 43.640626-69.976563.53125-.339844 1.011718-.746094 1.441406-1.203125 13.105468-10.75 28.28125-18.425781 45.300781-22.878906.53125-.078125 1.050781-.207032 1.554687-.394532 15.65625-3.886718 32.847657-5.082031 51.40625-3.457031 18.710938 1.636719 35.535157 5.875 50.367188 12.511719.304688.160156.617188.304688.9375.421875 16.085938 7.355469 29.777344 17.582031 40.863281 30.515625.324219.484375.695313.933594 1.125 1.335938 16.363281 19.675781 26.878907 45.390624 30.871094 76.527343 1.582031 12.351563 1.15625 23.90625-1.269531 34.339844-.933594 4.035156 1.578125 8.066406 5.609375 9.003906 4.039062.941407 8.066406-1.574219 9.003906-5.609375 2.828125-12.179687 3.34375-25.515625 1.53125-39.640625-2.175781-16.980469-6.160156-32.539062-11.898437-46.617187 4.667968 3.3125 10.210937 5.15625 16.054687 5.273437.195313.003907.390625.003907.582031.003907 7.476563 0 14.535156-2.839844 19.941406-8.035157 11.441407-11.003906 11.800782-29.269531.796876-40.710937l-15.78125-16.414063c-12.554688-13.054687-29.355469-21.558593-47.3125-23.941406-16.40625-2.171875-33.257813.855469-47.894532 8.53125-15.628906-6.597656-33.070312-10.761719-52.222656-12.4375-19.148438-1.671875-37.046875-.601563-53.585938 3.183594-13.085937-10.105469-29.152343-16.015625-45.691406-16.722657-18.085937-.773437-36.117187 4.6875-50.746094 15.363282l-18.390624 13.425781c-12.824219 9.359375-15.640626 27.40625-6.285157 40.226563 5.632813 7.714843 14.40625 11.808593 23.296875 11.808593 4.164063 0 8.347656-.917969 12.253906-2.765625-8.101562 12.875-14.726562 27.515625-19.820312 43.871094-9.660156 31.015625-6.535156 59.679688 9.039062 82.898438 5.335938 7.957031 12.03125 15.160156 20.003907 21.589843-.675781 1.421875-1.324219 2.84375-1.921875 4.261719-1.921875 4.566406-2.660156 9.378906-2.347656 14.074219-18.421876-3.574219-36.234376-15.964844-41.113282-23.226563-8.765625-13.054687-26.519531-16.539062-39.578125-7.773437-6.324219 4.246093-10.617187 10.703125-12.085937 18.179687-1.46875 7.476563.0625 15.074219 4.3125 21.398438 16.308594 24.28125 57.648437 49.394531 98.609375 49.394531.210937 0 .429687-.007813.644531-.011719 1.972656 5.3125 4.429688 10.421875 7.3125 15.296875-10.882812 5.753907-18.261719 3.648438-27.003906.074219-6.015625-2.457031-12.625-2.421875-18.617188.09375-5.988281 2.515625-10.636718 7.210938-13.09375 13.226562-2.453125 6.011719-2.421875 12.625.09375 18.609376 2.515625 5.992187 7.214844 10.640624 13.226563 13.097656 11.769531 4.808594 22.628906 7.144531 33.191406 7.144531 11.007813 0 21.695313-2.59375 32.363281-7.863281-.824218 10.542968-.972656 21.285156-.488281 33.058594.164063 4.035156 3.488281 7.191406 7.488281 7.191406.101563 0 .207032 0 .3125-.007813 4.140625-.167969 7.355469-3.660156 7.183594-7.800781-.605469-14.710938-.167969-27.703125 1.40625-40.777344 8 4.855469 16.734375 8.785156 26.015625 11.613282-.96875 12.386718-.832031 25.472656.414063 41.472656.277343 3.601562-.859376 7.097656-3.207032 9.839844-2.347656 2.746093-5.625 4.410156-9.222656 4.691406-3.527344.28125-6.976562-.832032-9.671875-3.0625-3.191406-2.640625-7.917969-2.191406-10.558594 1s-2.191406 7.917968 1 10.5625c5.101563 4.21875 11.546875 6.542968 18.15625 6.542968.734375 0 1.488281-.03125 2.234375-.085937 7.597656-.59375 14.507813-4.105469 19.460938-9.894531 4.953125-5.789063 7.355468-13.160156 6.761718-20.757813-1.121093-14.40625-1.316406-25.894531-.585937-36.835937 6.496094 1.09375 13.1875 1.667968 20.027344 1.667968 6.835937 0 13.53125-.574218 20.023437-1.667968.730469 10.9375.535156 22.425781-.585937 36.835937-.589844 7.597657 1.8125 14.96875 6.765625 20.757813 4.953125 5.789062 11.863281 9.300781 19.449218 9.890625.734376.058593 1.492188.089843 2.246094.089843 14.785156 0 27.265625-11.558593 28.414063-26.3125 1.976562-25.417968 1.476562-45.515624-1.703125-66.238281 11.324218-9.539062 20.449218-21.214843 26.59375-34.316406 35-2.695313 70.894531-22.039063 85.925781-34.175781 5.929687-4.789063 9.636719-11.597656 10.441406-19.171875.8125-7.574219-1.382812-15.011719-6.167969-20.9375zm-74.046874-203.253907c14.601562 1.941407 28.261718 8.855469 38.46875 19.472657l15.785156 16.414062c5.269531 5.480469 5.097656 14.226563-.386719 19.5-2.652344 2.550781-6.140625 3.9375-9.828125 3.847657-3.683594-.074219-7.117188-1.574219-9.671875-4.230469l-15.78125-16.414063c-4.285156-4.457031-9.582031-7.777344-15.421875-9.699218-2.351562-2.679688-4.789062-5.285157-7.355469-7.773438-7.335937-7.113281-15.417969-13.304688-24.207031-18.570312 9.125-2.898438 18.851562-3.8125 28.398438-2.546876zm-241.457032 30.871094c-6.144531 4.480469-14.789062 3.132813-19.269531-3.011718-4.484375-6.140626-3.132813-14.785157 3.007813-19.269532l18.390624-13.421875c11.898438-8.683593 26.546876-13.125 41.269532-12.496093 9.617187.410156 19.039062 2.996093 27.523437 7.4375-9.570312 3.660156-18.601562 8.355468-27.0625 14.085937-2.96875 2.011719-5.84375 4.144531-8.636719 6.382813-6.070312.882812-11.847656 3.230468-16.828124 6.871093zm-66.898437 181.785156c-4.160157-6.191406-2.503907-14.609374 3.683593-18.765624 6.191407-4.15625 14.609376-2.503907 18.765626 3.683593 8.003906 11.917969 34.265624 28.886719 59.121093 30.691407v.003906c-.367187 3.347656-.550781 6.714844-.550781 10.054687 0 5.796875.546875 11.480469 1.59375 17.011719-34.363281-1.402344-69.265625-22.800781-82.613281-42.679688zm187.007812 26.667969c11.652344 0 21.128907 9.476563 21.128907 21.128907 0 11.648437-9.476563 21.125-21.128907 21.125-11.648437 0-21.125-9.476563-21.125-21.125 0-11.652344 9.476563-21.128907 21.125-21.128907zm-94.824219-35.136719c.183594-.433593.378907-.867187.570313-1.300781 20.144531 12.417969 46.277344 21.027344 77.664063 25.488281-7.1875 3.734376-12.964844 9.808594-16.324219 17.210938-19.4375-3.996094-37.96875-11.105469-55.164063-21.199219-1.519531-.890625-2.832031-2.011719-3.941406-3.277343-.015625-.019532-.03125-.035157-.046875-.050782-3.957031-4.546875-5.191406-11.085937-2.757813-16.871094zm-10.269531 118.757813c-8.582031 0-17.585937-1.972656-27.523437-6.03125-2.304688-.941406-4.105469-2.722656-5.066406-5.019531-.964844-2.292969-.976563-4.824219-.035157-7.128906.9375-2.308594 2.722657-4.105469 5.015625-5.070313 2.292969-.964844 4.828125-.976563 7.132813-.035156 11.4375 4.671875 24.015625 8.253906 41.324219-1.601563 4.019531 4.917969 8.53125 9.484375 13.457031 13.652344-11.574219 7.546875-22.824219 11.234375-34.304688 11.234375zm170.445313 53.988281c-.542969 6.992188-6.457032 12.472656-13.457032 12.472656-.351562 0-.707031-.011718-1.074218-.039062-3.601563-.28125-6.875-1.945312-9.226563-4.691406-2.347656-2.746094-3.484375-6.238282-3.203125-9.839844 1.242188-16.007812 1.378906-29.089844.410156-41.476562 9.289063-2.828126 18.023438-6.757813 26.027344-11.617188 2.0625 17.003906 2.1875 33.824219.523438 55.191406zm-61.355469-53.429687c-51.753906 0-93.96875-37.3125-94.960937-83.515625 17.226562 9.492187 35.625 16.28125 54.847656 20.25-.003906.074218-.007813.144531-.007813.214844 0 19.921874 16.207031 36.125 36.128907 36.125 19.5 0 35.429687-15.53125 36.09375-34.871094 22.132812-3.617188 43.226562-10.894532 62.859374-21.714844-.996093 46.203125-43.210937 83.511719-94.960937 83.511719zm96.046875-102.433594c-.027344.03125-.054688.066406-.082031.097656-1.105469 1.253907-2.410157 2.347657-3.894531 3.21875-19.398438 11.386719-40.421876 18.949219-62.570313 22.546875-2.480469-6.121094-6.585937-11.417968-11.785156-15.339844 2.574219.070313 5.128906.109376 7.648437.109376 22.148438 0 42.011719-2.585938 59.28125-7.742188 4.371094-1.304688 8.554688-2.769531 12.558594-4.390625-.355469.519531-.738281 1.019531-1.15625 1.5zm86.609375 1.535156c-.382813 3.59375-2.140625 6.820313-4.949219 9.089844-10.703125 8.640625-40.347656 25.773437-70.789062 30.136719 2-7.542969 3.066406-15.414063 3.066406-23.507813 0-1.503906-.050781-3.015625-.125-4.527343 17.847656-3.9375 38.628906-13.269532 50.851562-23.140626 5.804688-4.6875 14.332032-3.78125 19.019532 2.019532 2.269531 2.8125 3.308594 6.339844 2.925781 9.929687zm-109.453125-155.707031-.949219 10.839844c-.363281 4.125 2.691407 7.765625 6.816407 8.125.222656.019531.441406.027344.664062.027344 3.84375 0 7.121094-2.941407 7.460938-6.84375l.949218-10.839844c.363282-4.128906-2.691406-7.765625-6.816406-8.128906-4.121094-.367188-7.765625 2.691406-8.125 6.820312zm-54.949219 46.328125 16.070313-5.527344c4.867187-1.671875 8.714844-5.390625 10.550781-10.199219 1.835937-4.8125 1.449219-10.148437-1.0625-14.640624-3.097656-5.542969-8.101563-9.773438-14.078125-11.910157-.003906 0-.003906 0-.003906 0-11.5-4.109375-23.941406-5.199219-35.984375-3.148437-6.261719 1.070312-11.917969 4.367187-15.933594 9.285156-3.253906 3.988281-4.5625 9.175781-3.589844 14.230469.976563 5.058593 4.117188 9.386719 8.621094 11.878906l14.863281 8.230469c.882813.488281 1.789063.914062 2.710938 1.292968l-.882813 10.085938c-16.160156 2.046875-29.292969 15.132812-30.769531 32-1.699219 19.425781 12.722656 36.609375 32.148438 38.308594 1.042968.089844 2.078124.136718 3.109374.136718 18.113282 0 33.59375-13.902343 35.203126-32.28125 0-.003906 0-.003906 0-.003906.820312-9.410156-2.066407-18.574218-8.140626-25.8125-4.429687-5.28125-10.171874-9.0625-16.609374-11.046875l.886718-10.097656c.972656-.207031 1.941406-.457031 2.890625-.78125zm1.34375 31.566406c3.496094 4.167969 5.160157 9.445313 4.6875 14.863281-.476562 5.421876-3.03125 10.332032-7.199219 13.828126-4.167968 3.496093-9.441406 5.15625-14.863281 4.683593-5.417969-.472656-10.328125-3.027343-13.824219-7.195312-3.496093-4.164063-5.164062-9.445313-4.6875-14.863281.925782-10.585938 9.835938-18.589844 20.269532-18.589844.59375 0 1.191406.023437 1.792968.078125 5.417969.472656 10.324219 3.027343 13.824219 7.195312zm-6.21875-45.753906c-2.773437.957031-5.835937.6875-8.402343-.734375l-14.867188-8.230469c-.824219-.460937-1.078125-1.195312-1.15625-1.597656-.074219-.394531-.117188-1.175781.484375-1.910156 1.71875-2.109375 4.144531-3.519531 6.828125-3.980469 3.125-.53125 6.285156-.796875 9.441406-.796875 6.445313 0 12.878906 1.105469 18.976563 3.285156 2.5625.917969 4.707031 2.730469 6.039062 5.105469.460938.824219.285157 1.585938.140625 1.964844-.144531.378906-.519531 1.0625-1.414062 1.371094zm-201.335937 42.101563v-17.003907c0-11.085937-9.019532-20.109375-20.105469-20.109375h-.648437v-5.746094c0-1.761718.960937-3.378906 2.511718-4.222656 11.253906-6.121094 18.242188-17.878906 18.242188-30.691406v-13.726562c0-26.878907-21.863282-48.746094-48.742188-48.746094s-48.746094 21.867187-48.746094 48.742187v13.730469c0 12.8125 6.992188 24.570312 18.246094 30.691406 1.546875.839844 2.507813 2.460938 2.507813 4.222656v5.746094h-.644531c-11.085938 0-20.109376 9.023438-20.109376 20.109375v17c0 9.667969 6.863282 17.761719 15.96875 19.675781 3.253907 15.109376 16.710938 26.46875 32.777344 26.46875s29.523438-11.359374 32.777344-26.46875c9.105469-1.914062 15.964844-10.003906 15.964844-19.671874zm-82.488282-77.773438v-13.730469c0-18.605469 15.140626-33.742187 33.746094-33.742187 18.605469 0 33.746094 15.136718 33.746094 33.742187v13.730469c0 7.3125-3.988281 14.019531-10.410156 17.515625-6.382813 3.46875-10.34375 10.136719-10.34375 17.398437v5.746094h-25.984375v-5.746094c0-7.261718-3.960938-13.929687-10.339844-17.398437-6.421875-3.492187-10.414063-10.203125-10.414063-17.515625zm33.746094 108.914062c-7.550781 0-14.046875-4.542968-16.933594-11.035156h33.867188c-2.886719 6.492188-9.382812 11.035156-16.933594 11.035156zm28.636719-26.035156h-57.273437c-2.816407 0-5.109376-2.292968-5.109376-5.105468v-17.003907c0-2.816406 2.292969-5.109375 5.109376-5.109375h57.273437c2.816406 0 5.105469 2.292969 5.105469 5.109375v17.003907c0 2.8125-2.289063 5.105468-5.105469 5.105468zm0 0"/></svg>